<?xml version="1.0" encoding="UTF-8" standalone="no"?>
<!-- Created with Inkscape (http://www.inkscape.org/) -->
<svg
   xmlns:svg="http://www.w3.org/2000/svg"
   xmlns="http://www.w3.org/2000/svg"
   version="1.0"
   width="740"
   height="188.57143"
   id="svg3905">
  <defs
     id="defs3907" />
  <g
     transform="translate(1988.5714,516.20923)"
     id="layer1">
    <path
       d="M -1934.7664,-430.10626 C -1936.6008,-428.48493 -1938.4469,-427.70383 -1940.3523,-427.70383 L -1955.0747,-427.70383 L -1948.6957,-459.19578 L -1933.9853,-459.19578 C -1932.08,-459.19578 -1930.5414,-458.39102 -1929.358,-456.79335 C -1928.1863,-455.18384 -1927.8195,-453.37313 -1928.2218,-451.31391 L -1931.4172,-435.59753 C -1931.8433,-433.52648 -1932.9438,-431.70394 -1934.7664,-430.10626 z M -1906.3041,-451.31391 C -1905.452,-455.50337 -1906.1976,-459.18394 -1908.458,-462.30828 C -1910.7776,-465.49179 -1913.8665,-467.03029 -1917.7719,-467.03029 L -1969.0631,-467.03029 L -1981.7735,-404.18844 L -1959.8322,-404.18844 L -1956.6723,-419.85748 L -1927.3461,-419.85748 C -1923.4407,-419.85748 -1919.6773,-421.41965 -1916.1269,-424.5795 C -1912.5528,-427.71567 -1910.3279,-431.39624 -1909.4995,-435.59753 L -1906.3041,-451.31391"
       id="path331"
       style="fill:#ed1b2e;fill-opacity:1;fill-rule:evenodd;stroke:none" />
    <path
       d="M -1848.9299,-459.19578 L -1869.5339,-459.19578 C -1871.4512,-459.19578 -1873.2973,-458.39102 -1875.1081,-456.79335 C -1876.9306,-455.18384 -1878.0667,-453.37313 -1878.4691,-451.31391 L -1884.8361,-419.85748 L -1906.7775,-419.85748 L -1900.3986,-451.31391 C -1899.5466,-455.50337 -1897.3453,-459.18394 -1893.7713,-462.30828 C -1890.209,-465.47996 -1886.4812,-467.03029 -1882.5639,-467.03029 L -1847.3322,-467.03029 L -1848.9299,-459.19578"
       id="path335"
       style="fill:#ed1b2e;fill-opacity:1;fill-rule:nonzero;stroke:none" />
    <path
       d="M -1809.8519,-430.10626 C -1811.6627,-428.48493 -1813.5325,-427.70383 -1815.4379,-427.70383 L -1822.799,-427.70383 C -1824.6925,-427.70383 -1826.2547,-428.48493 -1827.4145,-430.10626 C -1828.5862,-431.70394 -1828.953,-433.52648 -1828.5507,-435.59753 L -1825.3671,-451.31391 C -1824.953,-453.37313 -1823.8287,-455.18384 -1821.9943,-456.79335 C -1820.1954,-458.39102 -1818.3256,-459.19578 -1816.4202,-459.19578 L -1809.0472,-459.19578 C -1807.1418,-459.19578 -1805.5915,-458.39102 -1804.4436,-456.79335 C -1803.2719,-455.18384 -1802.8814,-453.37313 -1803.3074,-451.31391 L -1806.5027,-435.59753 C -1806.9051,-433.52648 -1808.0175,-431.70394 -1809.8519,-430.10626 z M -1781.3778,-451.31391 C -1780.5021,-455.50337 -1781.2477,-459.18394 -1783.5436,-462.30828 C -1785.8396,-465.49179 -1788.9284,-467.03029 -1792.822,-467.03029 L -1829.4619,-467.03029 C -1833.3555,-467.03029 -1837.1071,-465.49179 -1840.6812,-462.30828 C -1844.2197,-459.18394 -1846.4209,-455.50337 -1847.2848,-451.31391 L -1850.4921,-435.59753 C -1851.3323,-431.39624 -1850.5867,-427.71567 -1848.2908,-424.5795 C -1846.0304,-421.41965 -1842.9297,-419.85748 -1839.0124,-419.85748 L -1802.3843,-419.85748 C -1798.5025,-419.85748 -1794.7391,-421.41965 -1791.1888,-424.5795 C -1787.6265,-427.71567 -1785.4135,-431.39624 -1784.5495,-435.59753 L -1781.3778,-451.31391"
       id="path339"
       style="fill:#ed1b2e;fill-opacity:1;fill-rule:evenodd;stroke:none" />
    <path
       d="M -1729.1162,-419.85758 L -1765.768,-419.85758 C -1769.6734,-419.85758 -1772.774,-421.41975 -1775.0819,-424.59143 C -1777.3659,-427.70393 -1778.0878,-431.39634 -1777.2475,-435.59763 L -1767.6852,-482.7231 L -1745.7557,-482.7231 L -1748.9391,-467.03039 L -1726.903,-467.03039 L -1728.5125,-459.19587 L -1750.525,-459.19587 L -1755.318,-435.59763 C -1755.7204,-433.52657 -1755.3653,-431.72771 -1754.17,-430.10636 C -1753.0103,-428.48502 -1751.4717,-427.70393 -1749.5663,-427.70393 L -1727.5658,-427.70393 L -1729.1162,-419.85758"
       id="path343"
       style="fill:#231f20;fill-opacity:1;fill-rule:nonzero;stroke:none" />
    <path
       d="M -1655.4101,-419.85758 L -1677.3515,-419.85758 L -1670.9845,-451.31401 C -1670.5584,-453.37323 -1670.949,-455.18393 -1672.1088,-456.79344 C -1673.2922,-458.39112 -1674.8189,-459.19587 -1676.7362,-459.19587 L -1691.4346,-459.19587 L -1699.4112,-419.85758 L -1721.3408,-419.85758 L -1708.6303,-482.7231 L -1686.689,-482.7231 L -1689.837,-467.03039 L -1660.5227,-467.03039 C -1656.6291,-467.03039 -1653.5165,-465.49189 -1651.2325,-462.30837 C -1648.9129,-459.19587 -1648.2028,-455.50346 -1649.043,-451.31401 L -1655.4101,-419.85758"
       id="path347"
       style="fill:#231f20;fill-opacity:1;fill-rule:nonzero;stroke:none" />
    <path
       d="M -1622.1784,-443.39655 L -1620.5571,-451.29024 C -1620.1311,-453.33763 -1619.0186,-455.172 -1617.2198,-456.7815 C -1615.3854,-458.39102 -1613.5155,-459.19578 -1611.6101,-459.19578 L -1604.2372,-459.19578 C -1602.3437,-459.19578 -1600.8051,-458.39102 -1599.6453,-456.7815 C -1598.4619,-455.172 -1598.095,-453.33763 -1598.4856,-451.29024 L -1600.1187,-443.39655 L -1622.1784,-443.39655 z M -1576.5678,-451.29024 C -1575.7157,-455.49154 -1576.4495,-459.14843 -1578.7453,-462.30828 C -1581.0413,-465.47996 -1584.1183,-467.03029 -1588.0356,-467.03029 L -1624.6637,-467.03029 C -1628.5692,-467.03029 -1632.3089,-465.47996 -1635.8711,-462.30828 C -1639.4451,-459.14843 -1641.6346,-455.49154 -1642.5104,-451.29024 L -1645.6702,-435.53836 C -1646.5223,-431.37257 -1645.8241,-427.70383 -1643.5044,-424.56766 C -1641.2085,-421.41965 -1638.1315,-419.85748 -1634.2024,-419.85748 L -1590.2368,-419.85748 L -1588.6628,-427.70383 L -1618.0008,-427.70383 C -1619.9535,-427.70383 -1621.4684,-428.46126 -1622.5216,-430.03526 C -1623.5749,-431.55009 -1624.0128,-433.39629 -1623.7761,-435.53836 L -1579.7513,-435.53836 L -1576.5678,-451.29024"
       id="path351"
       style="fill:#231f20;fill-opacity:1;fill-rule:evenodd;stroke:none" />
    <path
       d="M -1519.1462,-459.19578 L -1538.9574,-459.19578 C -1540.8509,-459.19578 -1542.7326,-458.39102 -1544.5552,-456.79335 C -1546.354,-455.18384 -1547.4783,-453.37313 -1547.8925,-451.31391 L -1554.2596,-419.85748 L -1576.1891,-419.85748 L -1569.8339,-451.31391 C -1568.9818,-455.50337 -1566.7569,-459.19578 -1563.2065,-462.30828 C -1559.6324,-465.47996 -1555.8927,-467.03029 -1551.9873,-467.03029 L -1517.5485,-467.03029 L -1519.1462,-459.19578"
       id="path355"
       style="fill:#231f20;fill-opacity:1;fill-rule:nonzero;stroke:none" />
    <path
       d="M -1412.7174,-419.85758 L -1434.6706,-419.85758 L -1428.2681,-451.31401 C -1427.8776,-453.37323 -1428.2563,-455.18393 -1429.4042,-456.79344 C -1430.5877,-458.39112 -1432.138,-459.19587 -1434.0316,-459.19587 L -1441.3809,-459.19587 C -1443.2863,-459.19587 -1445.1561,-458.39112 -1446.9669,-456.79344 C -1448.813,-455.18393 -1449.9373,-453.37323 -1450.3397,-451.31401 L -1456.6948,-419.85758 L -1478.6245,-419.85758 L -1472.2811,-451.31401 C -1471.8788,-453.37323 -1472.2456,-455.18393 -1473.4054,-456.79344 C -1474.5652,-458.39112 -1476.1155,-459.19587 -1478.0209,-459.19587 L -1485.3821,-459.19587 C -1487.2992,-459.19587 -1489.1573,-458.39112 -1490.9679,-456.79344 C -1492.8023,-455.18393 -1493.9148,-453.37323 -1494.329,-451.31401 L -1500.7079,-419.85758 L -1522.6375,-419.85758 L -1516.2586,-451.31401 C -1515.4302,-455.50346 -1513.2289,-459.19587 -1509.6549,-462.30837 C -1506.0808,-465.49189 -1502.3528,-467.03039 -1498.4001,-467.03039 L -1417.8063,-467.03039 C -1413.9127,-467.03039 -1410.812,-465.49189 -1408.5516,-462.30837 C -1406.2202,-459.19587 -1405.4983,-455.50346 -1406.3504,-451.31401 L -1412.7174,-419.85758"
       id="path359"
       style="fill:#231f20;fill-opacity:1;fill-rule:nonzero;stroke:none" />
    <path
       d="M -1436.7771,-412.20057 C -1441.7478,-402.70921 -1449.9492,-392.5196 -1462.411,-387.97509 L -1386.8943,-363.78512 C -1403.4272,-377.32394 -1423.1911,-387.97509 -1440.517,-396.02264 L -1436.7771,-412.20057"
       id="path363"
       style="fill:#ed1b2e;fill-opacity:1;fill-rule:nonzero;stroke:none" />
    <path
       d="M -1316.7267,-436.91118 C -1314.703,-438.43784 -1312.0757,-439.98818 -1310.5373,-439.8935 L -1306.2768,-440.98229 C -1306.8804,-441.55034 -1306.2649,-443.76342 -1308.5254,-444.05929 C -1314.7504,-444.86404 -1320.7506,-450.99437 -1326.0288,-450.11862 C -1323.0701,-448.46177 -1319.8748,-446.49722 -1317.3303,-442.75748 C -1316.2533,-441.17164 -1319.0582,-437.99996 -1321.2239,-435.49102 C -1320.218,-435.34901 -1318.7505,-435.38451 -1316.7267,-436.91118"
       id="path367"
       style="fill:#ed1b2e;fill-opacity:1;fill-rule:nonzero;stroke:none" />
    <path
       d="M -1253.9915,-508.0492 L -1761.6377,-508.0492 C -1761.6377,-508.0492 -1597.2429,-497.83591 -1584.4378,-496.98382 C -1578.0235,-496.54594 -1520.8386,-492.68785 -1486.6602,-489.62269 C -1412.4452,-482.99529 -1400.433,-495.98972 -1400.433,-495.98972 L -1350.3608,-478.36796 C -1350.4318,-481.57514 -1349.2838,-486.14331 -1348.4436,-488.81793 C -1346.692,-479.26739 -1338.6326,-470.87664 -1329.7803,-467.79964 C -1314.5373,-462.49773 -1305.8626,-455.37329 -1299.4482,-444.73395 C -1295.7084,-442.3907 -1290.2764,-439.82259 -1284.8324,-431.68037 C -1283.2821,-429.37262 -1282.5957,-426.79267 -1282.5011,-424.35473 C -1282.5011,-424.35473 -1281.4478,-421.3369 -1283.1519,-418.34275 C -1283.8857,-417.05277 -1285.3177,-415.10005 -1286.442,-413.99944 C -1288.2171,-412.25974 -1289.1521,-410.82776 -1292.7143,-411.455 C -1293.7676,-411.23013 -1294.6789,-410.9461 -1295.3179,-410.12952 C -1297.9689,-406.83949 -1300.9512,-404.78026 -1302.0991,-404.40156 C -1303.1288,-404.04652 -1303.0814,-404.67376 -1302.7028,-405.69153 C -1301.5666,-408.69753 -1298.7026,-412.60295 -1299.8269,-415.43142 C -1301.7559,-416.67406 -1304.0993,-417.83386 -1307.4958,-418.21257 C -1315.2829,-419.06465 -1318.4191,-417.44331 -1319.283,-413.31303 C -1320.1233,-409.27742 -1319.4487,-397.66766 -1315.7918,-392.76812 C -1314.0877,-393.05215 -1312.1941,-394.1291 -1310.6674,-394.46047 C -1309.7917,-394.64983 -1309.2946,-394.5078 -1309.768,-393.20601 C -1310.1112,-392.23556 -1311.1645,-390.4367 -1312.7267,-388.60233 C -1311.6379,-386.74429 -1311.2236,-384.82709 -1312.8923,-383.83298 C -1316.0285,-381.93944 -1327.9224,-377.71448 -1327.946,-363.06321 C -1329.6384,-374.40078 -1338.467,-374.8505 -1341.6623,-381.26486 C -1347.556,-394.40129 -1339.0824,-396.73272 -1338.7155,-407.69159 C -1341.9818,-393.47819 -1352.0176,-397.95169 -1350.8223,-379.2293 C -1353.3905,-386.74429 -1356.7278,-390.42486 -1359.1065,-393.01664 C -1361.4853,-395.60843 -1368.6216,-404.38972 -1380.6929,-408.63835 C -1382.1249,-409.14724 -1385.5688,-410.03483 -1388.1605,-410.30703 C -1390.1487,-406.33061 -1394.1607,-398.60259 -1387.2256,-394.34212 C -1382.2669,-391.28879 -1338.5971,-369.63143 -1310.5373,-339.25195 L -1291.7794,-333.25179 L -1253.9915,-508.0492"
       id="path371"
       style="fill:#ed1b2e;fill-opacity:1;fill-rule:nonzero;stroke:none" />
  </g>
</svg>
