<svg version="1.2" xmlns="http://www.w3.org/2000/svg" viewBox="0 0 1280 400" width="1280" height="400">
	<style>
		.s0 { fill: #ffffff } 
	</style>
	<path id="PLYN SERVIS" class="s0" d="m93.3 78h-56l-25.2 126h42.5l6.1-31h21.8c38.7 0 63.7-21.4 63.7-53.2 0-26.3-19.1-41.8-52.9-41.8zm-8.6 62.3h-17.5l5.9-29.5h14.3c9.7 0 15.8 3.7 15.8 12.7 0 10.7-6.8 16.8-18.5 16.8zm59.4 63.7h99.3l6.7-32.9h-56.9l18.5-93.1h-42.4zm246-126h-42.6l-35.1 43.6-17.1-43.6h-42.7l31.5 79.7-9.2 46.3h42.5l9-45.7zm88.2 0l-11.7 58.7-36.2-58.7h-34.9l-25.2 126h41.4l11.7-58.7 36.2 58.7h34.9l25.2-126zm140.8 128.9c39.2 0 63.7-18.9 63.7-47 0-38.9-60.1-30.1-60.1-43.9 0-4.4 6.1-8.5 18.5-8.5 12.2 0 24.5 3.1 34.6 9.4l15.3-31c-11.7-7-28.5-10.8-47.2-10.8-39.8 0-63.7 18.7-63.7 47.3 0 39.1 59.9 31.4 59.9 44.7 0 4.5-5.7 7.4-16.7 7.4-14.1 0-28.5-3.6-42.5-11.7l-16.4 31.3c12.1 7.4 32.1 12.8 54.6 12.8zm189.3-96.9l6.5-32h-102.4l-25.2 126h104.7l6.5-32.1h-63.2l3.3-16.5h53.4l6.2-30.6h-53.3l2.9-14.8zm134.1 9.4c0-26.1-19.1-41.4-52.4-41.4h-56.5l-25.2 126h42.4l6.3-31.7h10.5l17.8 31.7h44.1l-21.1-36.7c21.5-8.1 34.1-25.4 34.1-47.9zm-43.1 4.1c0 10.6-6.8 16.8-18.5 16.8h-17.5l6-29.6h14.2c9.7 0 15.8 3.8 15.8 12.8zm159.3-45.5l-45.5 73.4-15.7-73.4h-43.5l28.1 126h41.7l78.5-126zm22.5 126h42.5l25.2-126h-42.5zm113 2.9c39.3 0 63.8-18.9 63.8-47 0-38.9-60.2-30.1-60.2-43.9 0-4.4 6.2-8.5 18.6-8.5 12.2 0 24.5 3.1 34.5 9.4l15.3-31c-11.6-7-28.4-10.8-47.1-10.8-39.8 0-63.7 18.7-63.7 47.3 0 39.1 59.9 31.4 59.9 44.7 0 4.5-5.7 7.4-16.7 7.4-14.1 0-28.5-3.6-42.5-11.7l-16.4 31.3c12.1 7.4 32 12.8 54.5 12.8z"/>
	<path id="VLADIMÍR ŘEHÁK" class="s0" d="m164.7 244.3l-44.9 69.7-16.5-69.7h-12.4l20.3 84.7h11.9l54.2-84.7zm6.4 84.7h58.1l2-10.5h-46l14.9-74.2h-12.1zm136.3 0h12l-21.5-84.7h-11.9l-55.5 84.7h13.1l13.4-21.2h45.3zm-44.2-30.8l26.7-41.8 10 41.8zm68.7 30.8h37.9c31.7 0 52.8-20.1 52.8-49.9 0-21.1-14.9-34.8-40.6-34.8h-33.1zm14.1-10.5l12.7-63.6h22c19.8 0 29.6 9.6 29.6 24.9 0 22.4-15.3 38.7-40.2 38.7zm85.8 10.5h12.1l16.9-84.7h-12.1zm134.2-84.7l-46.3 59.7-23.6-59.7h-9.8l-17 84.7h11.7l12.4-62.4 21.2 52.1h5.6l40-50.9-12.3 61.2h11.6l16.9-84.7zm33.9-6.9h11.4l22-15.7h-15.1zm-15 91.6h12.1l16.9-84.7h-12.1zm117.3-59.9c0-15.7-11.4-24.8-31.3-24.8h-31.5l-17 84.7h12.2l5.1-25.9h22.6 2.3l14.8 25.9h12.8l-15.5-27.6c16-4.1 25.5-15.5 25.5-32.3zm-39.5 23.7h-20.9l7.6-38h20.5c12.9 0 20.2 5.2 20.2 15.4 0 14.9-10.1 22.6-27.4 22.6zm136.9-55.4l18-15.7h-10.7l-12.2 9.3-10.1-9.3h-10.2l14.2 15.7zm23.1 31.7c0-15.7-11.4-24.8-31.3-24.8h-31.5l-17 84.7h12.2l5.1-25.9h22.7 2.3l14.7 25.9h12.8l-15.4-27.6c15.9-4.1 25.4-15.5 25.4-32.3zm-39.5 23.7h-20.9l7.6-38h20.5c12.9 0 20.2 5.2 20.2 15.4 0 14.9-10.1 22.6-27.4 22.6zm122.3-38l2.1-10.5h-59.8l-16.9 84.7h61.6l2-10.5h-49.5l5.5-27.4h42.6l2-10.3h-42.6l5.3-26zm84-10.5l-7.2 36.3h-48.7l7.3-36.3h-12.1l-16.9 84.7h12.1l7.5-37.5h48.6l-7.5 37.5h12.1l16.9-84.7zm94.5-22.6h-15.1l-18.2 15.7h11.3zm-9.9 107.3h12l-21.4-84.7h-12l-55.4 84.7h13l13.5-21.1h45.2zm-44.1-30.9l26.6-41.8 10 41.8zm112.8-14.5l45.6-39.3h-15.7l-54.2 46.8 9.3-46.8h-12.1l-17 84.7 12.1-0.1 4.4-22 18.6-15.9 25.8 37.9h13.6l-30.6-45.1z"/>
</svg>